<svg width="30" height="30" viewBox="0 0 30 30" fill="none" xmlns="http://www.w3.org/2000/svg">
<path d="M11.9824 26.93V29.9684L11.2477 29.3749C11.1342 29.2831 8.43315 27.0902 5.69412 23.9456C1.91574 19.6076 0 15.7137 0 12.3722V12.041C0 5.43388 5.37529 0.0585938 11.9824 0.0585938C18.5896 0.0585938 23.9648 5.43388 23.9648 12.041V12.3722C23.9648 12.6528 23.95 12.9378 23.923 13.2262L21.5797 11.0884C21.0997 6.21597 16.9789 2.39662 11.9824 2.39662C6.66458 2.39662 2.33803 6.72318 2.33803 12.041V12.3722C2.33803 18.0187 9.61327 24.8543 11.9824 26.93ZM19.1718 25.2507H22.6788V21.7438H19.1718V25.2507ZM11.9824 7.07268C14.7219 7.07268 16.9508 9.30153 16.9508 12.041C16.9508 14.7805 14.7219 17.0094 11.9824 17.0094C9.24294 17.0094 7.01408 14.7805 7.01408 12.041C7.01408 9.30153 9.24294 7.07268 11.9824 7.07268ZM11.9824 9.41071C10.532 9.41071 9.35211 10.5906 9.35211 12.041C9.35211 13.4912 10.532 14.6713 11.9824 14.6713C13.4326 14.6713 14.6127 13.4912 14.6127 12.041C14.6127 10.5906 13.4326 9.41071 11.9824 9.41071ZM28.4244 23.662L27.767 23.0624V26.8158C27.767 28.5635 26.345 29.9854 24.5972 29.9854H17.195C15.4472 29.9854 14.0252 28.5635 14.0252 26.8158V23.0624L13.3678 23.662L11.7922 21.9349L20.896 13.6295L30 21.9349L28.4244 23.662ZM25.429 20.9294L20.896 16.7942L16.3632 20.9294V26.8156C16.3632 27.2742 16.7363 27.6473 17.195 27.6473H24.5972C25.0559 27.6473 25.429 27.2742 25.429 26.8156V20.9294Z" fill="black"/>
</svg>
