<svg width="30" height="30" viewBox="0 0 30 30" fill="none" xmlns="http://www.w3.org/2000/svg">
<path d="M23.426 11.0254C23.7883 11.0254 24.138 11.0806 24.4671 11.1827L27.466 8.18386L26.0683 6.78616L21.8291 11.0254H23.426Z" fill="black"/>
<path d="M29.4851 10.2031L28.7089 9.42683L25.9931 12.1426C26.5808 12.7713 26.9416 13.6146 26.9416 14.541V15.2325L29.4851 12.689C30.1716 12.0025 30.1716 10.8896 29.4851 10.2031Z" fill="black"/>
<path d="M24.8254 5.54326L19.797 0.514863C19.1105 -0.171621 17.9975 -0.171621 17.3111 0.514863L6.80051 11.0254H19.3432L24.8254 5.54326Z" fill="black"/>
<path d="M4.61331 18.3553H7.29116V20.3319H4.61331V18.3553Z" fill="black"/>
<path d="M23.426 12.7832H1.75781C0.786973 12.7832 0 13.5702 0 14.541V28.2422C0 29.213 0.786973 30 1.75781 30H23.426C24.3968 30 25.1838 29.213 25.1838 28.2422V14.541C25.1838 13.5702 24.3968 12.7832 23.426 12.7832ZM2.85551 16.5975H9.04898V22.0897H2.85551V16.5975ZM6.2751 26.1856H2.80084V24.4278H6.2751V26.1856ZM11.6443 26.1856H8.17008V24.4278H11.6443V26.1856ZM17.0137 26.1856H13.5394V24.4278H17.0137V26.1856ZM22.383 26.1856H18.9087V24.4278H22.383V26.1856Z" fill="black"/>
</svg>
