<svg width="30" height="30" viewBox="0 0 30 30" fill="none" xmlns="http://www.w3.org/2000/svg">
<path d="M15.001 0C6.71944 0 0.000930786 6.71003 0.000930786 14.9921C0.000930786 23.2821 6.71944 30 15.0009 30C23.2869 30 29.9997 23.282 29.9997 14.9921C29.9998 6.71003 23.2869 0 15.001 0ZM16.0699 23.3385C15.7215 23.6486 15.3177 23.8044 14.8604 23.8044C14.3871 23.8044 13.9744 23.6513 13.622 23.3447C13.2691 23.0386 13.0923 22.6101 13.0923 22.0595C13.0923 21.5711 13.2634 21.1599 13.6045 20.8268C13.9456 20.4936 14.364 20.327 14.8604 20.327C15.3488 20.327 15.7599 20.4936 16.0936 20.8268C16.4268 21.1599 16.5939 21.571 16.5939 22.0595C16.5933 22.6022 16.4188 23.0286 16.0699 23.3385ZM20.4139 12.5691C20.1462 13.0654 19.8283 13.4934 19.4596 13.8543C19.092 14.2151 18.4308 14.8216 17.4764 15.6742C17.2133 15.9148 17.0016 16.126 16.8429 16.3078C16.6842 16.4902 16.5657 16.6567 16.4883 16.8081C16.4103 16.9594 16.3505 17.1107 16.3081 17.262C16.2658 17.4128 16.202 17.6788 16.1156 18.0588C15.9688 18.8652 15.5075 19.2683 14.7321 19.2683C14.3289 19.2683 13.9901 19.1367 13.714 18.873C13.439 18.6093 13.3018 18.218 13.3018 17.6985C13.3018 17.0475 13.4029 16.4833 13.6045 16.0062C13.8049 15.529 14.0732 15.1106 14.4063 14.7498C14.74 14.389 15.1895 13.9609 15.7559 13.4646C16.2522 13.0303 16.6108 12.7029 16.8316 12.482C17.0529 12.2607 17.2387 12.0145 17.3895 11.7435C17.5414 11.4718 17.6159 11.1776 17.6159 10.8598C17.6159 10.2392 17.3861 9.71632 16.9242 9.28999C16.4629 8.86367 15.8677 8.6502 15.1387 8.6502C14.2855 8.6502 13.6576 8.86534 13.2544 9.29562C12.8512 9.7259 12.5108 10.3594 12.2312 11.1969C11.967 12.0733 11.4667 12.5114 10.7309 12.5114C10.2966 12.5114 9.93017 12.3584 9.63145 12.0523C9.3333 11.7462 9.18422 11.4148 9.18422 11.0579C9.18422 10.3216 9.42083 9.57509 9.89349 8.819C10.3667 8.06291 11.0567 7.43666 11.9641 6.94087C12.8709 6.44452 13.9298 6.19604 15.1387 6.19604C16.263 6.19604 17.2551 6.40382 18.1157 6.81889C18.9763 7.23333 19.6414 7.79748 20.1107 8.51119C20.5794 9.22435 20.8142 9.99968 20.8142 10.8371C20.8153 11.495 20.6815 12.0727 20.4139 12.5691Z" fill="#010002"/>
</svg>
