<svg width="35" height="35" viewBox="0 0 35 35" fill="none" xmlns="http://www.w3.org/2000/svg">
<path d="M34.4122 15.6464L18.7088 1.33755C18.0196 0.7094 16.9802 0.709468 16.2912 1.33748L0.587756 15.6464C0.0356182 16.1496 -0.146764 16.9248 0.122981 17.6213C0.392795 18.3178 1.04973 18.7678 1.79669 18.7678H4.30479V33.1042C4.30479 33.6726 4.76567 34.1334 5.33408 34.1334H13.9415C14.5099 34.1334 14.9707 33.6726 14.9707 33.1042V24.3996H20.0295V33.1042C20.0295 33.6726 20.4903 34.1335 21.0588 34.1335H29.6657C30.2341 34.1335 30.695 33.6727 30.695 33.1042V18.7678H33.2036C33.9505 18.7678 34.6075 18.3177 34.8773 17.6213C35.1467 16.9247 34.9643 16.1496 34.4122 15.6464Z" fill="#F5CE4D"/>
</svg>
