<svg width="28" height="30" viewBox="0 0 28 30" fill="none" xmlns="http://www.w3.org/2000/svg">
<path d="M22.6429 0.842871C22.3422 0.322969 21.7824 0 21.1822 0H14.9091V7.42014H26.447L22.6429 0.842871Z" fill="black"/>
<path d="M13.1507 0H6.81846C6.21705 0 5.65731 0.323555 5.3566 0.844629L1.56647 7.42014H13.1506V0H13.1507Z" fill="black"/>
<path d="M0.936935 9.17862V27.9327C0.936935 29.0727 1.86483 30 3.00488 30H24.9951C26.1352 30 27.0631 29.0727 27.0631 27.9327V9.17862H0.936935ZM17.9911 17.0653L13.4437 21.6127C13.272 21.7845 13.0469 21.8707 12.8218 21.8707C12.5967 21.8707 12.3716 21.7845 12.2005 21.6127L10.0687 19.4814C9.72576 19.1386 9.72576 18.5817 10.0687 18.2382C10.4121 17.8947 10.969 17.8947 11.3125 18.2382L12.8219 19.7482L16.7479 15.8221C17.0914 15.4786 17.6483 15.4786 17.9912 15.8221C18.3347 16.1656 18.3347 16.7219 17.9911 17.0653Z" fill="black"/>
</svg>
