<svg width="35" height="35" viewBox="0 0 35 35" fill="none" xmlns="http://www.w3.org/2000/svg">
<g clip-path="url(#clip0)">
<path d="M32.9167 21.2493L30.4669 16.4375C30.3502 16.2083 30.1147 16.0639 29.8574 16.0639H17.5001H5.14259C4.88529 16.0639 4.64982 16.2083 4.53307 16.4375L2.08328 21.2493C1.97536 21.4613 1.98534 21.7142 2.10968 21.9171C2.23402 22.1199 2.45486 22.2435 2.69274 22.2435H3.54642V34.3161C3.54642 34.6938 3.85262 35 4.23036 35H30.7675C31.1452 35 31.4514 34.6938 31.4514 34.3161V22.2436H32.3071C32.545 22.2436 32.7659 22.1199 32.8902 21.9171C33.0146 21.7142 33.0246 21.4613 32.9167 21.2493ZM29.4381 17.4317L31.1915 20.8756H20.3691L18.6157 17.4317H29.4381ZM5.56191 17.4317H16.3844L14.6309 20.8756H3.80851L5.56191 17.4317ZM30.0837 33.6322H18.184V29.8416C18.184 29.4639 17.8778 29.1577 17.5001 29.1577C17.1223 29.1577 16.8161 29.4639 16.8161 29.8416V33.6322H4.91443V22.2436H15.0503C15.3076 22.2436 15.543 22.0993 15.6598 21.8699L16.8161 19.5987V23.6999C16.8161 24.0776 17.1223 24.3839 17.5001 24.3839C17.8778 24.3839 18.184 24.0776 18.184 23.6999V19.5987L19.3403 21.8699C19.4571 22.0993 19.6925 22.2436 19.9498 22.2436H30.0837V33.6322Z" fill="#F5CE4D"/>
<path d="M11.6515 29.8866H7.75705C7.37932 29.8866 7.07312 30.1928 7.07312 30.5705C7.07312 30.9482 7.37932 31.2544 7.75705 31.2544H11.6515C12.0292 31.2544 12.3354 30.9482 12.3354 30.5705C12.3354 30.1928 12.0292 29.8866 11.6515 29.8866Z" fill="#F5CE4D"/>
<path d="M17.5001 14.0527C21.37 14.0527 24.5186 10.9002 24.5186 7.02537C24.5185 3.15157 21.37 0 17.5001 0C13.629 0 10.4796 3.15157 10.4796 7.02537C10.4796 10.9002 13.6289 14.0527 17.5001 14.0527ZM17.5001 1.36787C20.6159 1.36787 23.1507 3.90581 23.1507 7.02537C23.1507 10.146 20.6159 12.6848 17.5001 12.6848C14.3832 12.6848 11.8475 10.146 11.8475 7.02537C11.8475 3.90581 14.3832 1.36787 17.5001 1.36787Z" fill="#F5CE4D"/>
<path d="M14.4337 8.0511L16.2541 9.59419C16.3781 9.69931 16.535 9.75642 16.6964 9.75642C16.7158 9.75642 16.7353 9.7556 16.7548 9.75396C16.9363 9.73837 17.1041 9.6511 17.2209 9.51137L20.6468 5.41693C20.8892 5.12728 20.8508 4.69592 20.5611 4.45347C20.2714 4.21122 19.8401 4.24945 19.5977 4.53916L16.6136 8.10568L15.3183 7.00762C15.0302 6.76339 14.5985 6.79882 14.3544 7.08709C14.11 7.3753 14.1456 7.8068 14.4337 8.0511Z" fill="#F5CE4D"/>
<path d="M4.06394 7.7093H7.02305C7.40079 7.7093 7.70698 7.40303 7.70698 7.02537C7.70698 6.6477 7.40079 6.34143 7.02305 6.34143H4.06394C3.6862 6.34143 3.38 6.6477 3.38 7.02537C3.38 7.40303 3.6862 7.7093 4.06394 7.7093Z" fill="#F5CE4D"/>
<path d="M3.74494 2.95032L6.70405 4.51099C6.80582 4.56468 6.9149 4.59012 7.02255 4.59012C7.26809 4.59012 7.50555 4.4575 7.62811 4.2251C7.80429 3.891 7.67633 3.47729 7.34223 3.30111L4.38305 1.74044C4.04908 1.56426 3.63523 1.69215 3.45905 2.02632C3.28287 2.36042 3.41083 2.77414 3.74494 2.95032Z" fill="#F5CE4D"/>
<path d="M3.45881 12.024C3.5813 12.2565 3.81876 12.3893 4.0645 12.3893C4.17195 12.3893 4.28103 12.364 4.38267 12.3104L7.34178 10.7517C7.67595 10.5757 7.80418 10.162 7.62814 9.82788C7.45209 9.49364 7.03845 9.36547 6.70428 9.54145L3.74517 11.1001C3.411 11.2762 3.28283 11.6898 3.45881 12.024Z" fill="#F5CE4D"/>
<path d="M27.975 7.7093H30.9341C31.3119 7.7093 31.6181 7.40303 31.6181 7.02537C31.6181 6.6477 31.3119 6.34143 30.9341 6.34143H27.975C27.5973 6.34143 27.2911 6.6477 27.2911 7.02537C27.2911 7.40303 27.5973 7.7093 27.975 7.7093Z" fill="#F5CE4D"/>
<path d="M27.9756 4.59007C28.0832 4.59007 28.1923 4.56463 28.2941 4.51094L31.2532 2.95027C31.5873 2.77409 31.7153 2.36038 31.5391 2.02628C31.3629 1.69217 30.9492 1.56407 30.6151 1.74039L27.656 3.30106C27.3219 3.47724 27.1939 3.89095 27.3701 4.22506C27.4927 4.45746 27.73 4.59007 27.9756 4.59007Z" fill="#F5CE4D"/>
<path d="M27.6563 10.7517L30.6154 12.3104C30.7171 12.3639 30.8261 12.3893 30.9335 12.3893C31.1793 12.3893 31.4167 12.2565 31.5392 12.0239C31.7153 11.6898 31.587 11.2761 31.2529 11.1001L28.2938 9.5414C27.9595 9.36535 27.546 9.49352 27.3699 9.82783C27.1939 10.162 27.3221 10.5756 27.6563 10.7517Z" fill="#F5CE4D"/>
<path d="M17.5 26.0869C17.1223 26.0869 16.8161 26.3932 16.8161 26.7708V26.7747C16.8161 27.1524 17.1223 27.4568 17.5 27.4568C17.8778 27.4568 18.184 27.1486 18.184 26.7709C18.184 26.3932 17.8778 26.0869 17.5 26.0869Z" fill="#F5CE4D"/>
</g>
<defs>
<clipPath id="clip0">
<rect width="35" height="35" fill="white"/>
</clipPath>
</defs>
</svg>
