<svg width="35" height="35" viewBox="0 0 35 35" fill="none" xmlns="http://www.w3.org/2000/svg">
<path d="M27.5834 0.98335C27.2325 0.376797 26.5794 0 25.8792 0H18.5607V8.65683H32.0215L27.5834 0.98335Z" fill="#F5CE4D"/>
<path d="M16.5091 0H9.12153C8.41989 0 7.76685 0.37748 7.41603 0.9854L2.9942 8.65683H16.5091V0H16.5091Z" fill="#F5CE4D"/>
<path d="M2.25977 10.7084V32.5881C2.25977 33.9182 3.3423 35 4.67237 35H30.3276C31.6577 35 32.7403 33.9182 32.7403 32.5881V10.7084H2.25977ZM22.1563 19.9095L16.851 25.2148C16.6506 25.4152 16.388 25.5158 16.1254 25.5158C15.8629 25.5158 15.6002 25.4152 15.4006 25.2148L12.9134 22.7283C12.5134 22.3283 12.5134 21.6786 12.9134 21.2779C13.3142 20.8772 13.9638 20.8772 14.3646 21.2779L16.1255 23.0395L20.7059 18.4591C21.1067 18.0584 21.7563 18.0584 22.1564 18.4591C22.5571 18.8598 22.5571 19.5088 22.1563 19.9095Z" fill="#F5CE4D"/>
</svg>
