<svg width="30" height="30" viewBox="0 0 30 30" fill="none" xmlns="http://www.w3.org/2000/svg">
<path d="M22.5 14.5312V11.7188C22.5 11.2215 22.3025 10.7446 21.9508 10.3929C21.5992 10.0413 21.1223 9.84375 20.625 9.84375C20.1277 9.84375 19.6508 10.0413 19.2992 10.3929C18.9475 10.7446 18.75 11.2215 18.75 11.7188V14.5312C18.75 15.0285 18.9475 15.5054 19.2992 15.8571C19.6508 16.2087 20.1277 16.4062 20.625 16.4062C21.1223 16.4062 21.5992 16.2087 21.9508 15.8571C22.3025 15.5054 22.5 15.0285 22.5 14.5312ZM19.6875 14.5312V11.7188C19.6875 11.4701 19.7863 11.2317 19.9621 11.0558C20.1379 10.88 20.3764 10.7812 20.625 10.7812C20.8736 10.7812 21.1121 10.88 21.2879 11.0558C21.4637 11.2317 21.5625 11.4701 21.5625 11.7188V14.5312C21.5625 14.7799 21.4637 15.0183 21.2879 15.1942C21.1121 15.37 20.8736 15.4688 20.625 15.4688C20.3764 15.4688 20.1379 15.37 19.9621 15.1942C19.7863 15.0183 19.6875 14.7799 19.6875 14.5312Z" fill="black"/>
<path d="M24.375 14.5312V14.0625H23.4375V14.5312C23.4375 15.2772 23.1412 15.9925 22.6137 16.52C22.0863 17.0474 21.3709 17.3438 20.625 17.3438C19.8791 17.3438 19.1637 17.0474 18.6363 16.52C18.1088 15.9925 17.8125 15.2772 17.8125 14.5312V14.0625H16.875V14.5312C16.8762 15.4442 17.2101 16.3254 17.814 17.01C18.4179 17.6946 19.2506 18.1358 20.1562 18.2509V19.2188H19.2188V20.1562H22.0312V19.2188H21.0938V18.2509C21.9994 18.1358 22.8321 17.6946 23.436 17.01C24.0399 16.3254 24.3738 15.4442 24.375 14.5312Z" fill="black"/>
<path d="M9.84375 10.7812C9.22236 10.7819 8.62663 11.0291 8.18724 11.4685C7.74785 11.9079 7.5007 12.5036 7.5 13.125V14.5312H7.03125C6.90693 14.5312 6.7877 14.5806 6.69979 14.6685C6.61189 14.7565 6.5625 14.8757 6.5625 15V18.75C6.5625 18.8743 6.61189 18.9935 6.69979 19.0815C6.7877 19.1694 6.90693 19.2188 7.03125 19.2188H12.6562C12.7806 19.2188 12.8998 19.1694 12.9877 19.0815C13.0756 18.9935 13.125 18.8743 13.125 18.75V15C13.125 14.8757 13.0756 14.7565 12.9877 14.6685C12.8998 14.5806 12.7806 14.5312 12.6562 14.5312H12.1875V13.125C12.1868 12.5036 11.9396 11.9079 11.5003 11.4685C11.0609 11.0291 10.4651 10.7819 9.84375 10.7812ZM8.4375 13.125C8.4375 12.752 8.58566 12.3944 8.84938 12.1306C9.1131 11.8669 9.47079 11.7188 9.84375 11.7188C10.2167 11.7188 10.5744 11.8669 10.8381 12.1306C11.1018 12.3944 11.25 12.752 11.25 13.125V14.5312H8.4375V13.125ZM12.1875 18.2812H7.5V15.4688H12.1875V18.2812Z" fill="black"/>
<path d="M3.75 15V16.9262C3.75124 18.0311 4.19072 19.0904 4.97203 19.8717C5.75334 20.653 6.81266 21.0925 7.9176 21.0938H11.7699C12.3888 21.0938 12.9999 20.9558 13.5586 20.6898C14.1174 20.4238 14.6098 20.0365 15 19.5561V24.375H13.125V22.0312H12.1875V24.375H11.25V22.0312H10.3125V24.8438C10.3125 24.9681 10.3619 25.0873 10.4498 25.1752C10.5377 25.2631 10.6569 25.3125 10.7812 25.3125H15V28.5938C15 28.6675 15.0174 28.7402 15.0508 28.8059C15.0842 28.8717 15.1326 28.9286 15.1921 28.9721C15.2516 29.0156 15.3206 29.0445 15.3933 29.0564C15.4661 29.0682 15.5406 29.0628 15.6109 29.0404L25.9234 25.7592C26.0182 25.729 26.1009 25.6695 26.1596 25.5892C26.2183 25.5089 26.25 25.412 26.25 25.3125V17.3438H25.3125V24.9697L15.9375 27.9527V2.04726L25.3125 5.03027V16.4062H26.25V4.6875C26.25 4.58803 26.2183 4.49113 26.1596 4.41084C26.1009 4.33054 26.0182 4.271 25.9234 4.24084L15.6109 0.959588C15.5406 0.937229 15.4661 0.931759 15.3933 0.943624C15.3206 0.955488 15.2516 0.984352 15.1921 1.02787C15.1326 1.07139 15.0842 1.12833 15.0508 1.19408C15.0174 1.25982 15 1.33252 15 1.40625V4.21875H10.7812C10.6569 4.21875 10.5377 4.26813 10.4498 4.35604C10.3619 4.44395 10.3125 4.56318 10.3125 4.6875V8.90625H7.9176C6.81266 8.90749 5.75334 9.34697 4.97203 10.1283C4.19072 10.9096 3.75124 11.9689 3.75 13.0738V14.0625H4.6875V13.0738C4.68846 12.2175 5.02908 11.3964 5.63464 10.7909C6.24019 10.1853 7.06122 9.84471 7.9176 9.84375H11.7699C12.6263 9.84471 13.4473 10.1853 14.0529 10.7909C14.6584 11.3964 14.999 12.2175 15 13.0738V16.9262C14.999 17.7825 14.6584 18.6036 14.0529 19.2091C13.4473 19.8147 12.6263 20.1553 11.7699 20.1562H7.9176C7.06122 20.1553 6.24019 19.8147 5.63464 19.2091C5.02908 18.6036 4.68846 17.7825 4.6875 16.9262V15H3.75ZM11.25 8.90625V5.15625H15V6.09375H12.6562C12.5319 6.09375 12.4127 6.14313 12.3248 6.23104C12.2369 6.31895 12.1875 6.43818 12.1875 6.5625V8.92723C12.0501 8.91344 11.9109 8.90644 11.7699 8.90625H11.25ZM13.125 9.13365V7.03125H15V10.4439C14.5089 9.84141 13.8596 9.38768 13.125 9.13365Z" fill="black"/>
</svg>
