<svg width="30" height="30" viewBox="0 0 30 30" fill="none" xmlns="http://www.w3.org/2000/svg">
<path d="M23.6429 0.842871C23.3422 0.322969 22.7824 0 22.1822 0H15.9091V7.42014H27.447L23.6429 0.842871Z" fill="black"/>
<path d="M14.1507 0H7.81846C7.21705 0 6.65731 0.323555 6.3566 0.844629L2.56647 7.42014H14.1506V0H14.1507Z" fill="black"/>
<path d="M1.93694 9.17862V27.9327C1.93694 29.0727 2.86483 30 4.00488 30H25.9951C27.1352 30 28.0631 29.0727 28.0631 27.9327V9.17862H1.93694ZM18.9911 17.0653L14.4437 21.6127C14.272 21.7845 14.0469 21.8707 13.8218 21.8707C13.5967 21.8707 13.3716 21.7845 13.2005 21.6127L11.0687 19.4814C10.7258 19.1386 10.7258 18.5817 11.0687 18.2382C11.4121 17.8947 11.969 17.8947 12.3125 18.2382L13.8219 19.7482L17.7479 15.8221C18.0914 15.4786 18.6483 15.4786 18.9912 15.8221C19.3347 16.1656 19.3347 16.7219 18.9911 17.0653Z" fill="black"/>
</svg>
