<svg width="30" height="30" viewBox="0 0 30 30" fill="none" xmlns="http://www.w3.org/2000/svg">
<g clip-path="url(#clip0)">
<path d="M15 16.7578C15.9708 16.7578 16.7578 15.9708 16.7578 15C16.7578 14.0292 15.9708 13.2422 15 13.2422C14.0292 13.2422 13.2422 14.0292 13.2422 15C13.2422 15.9708 14.0292 16.7578 15 16.7578Z" fill="black"/>
<path d="M15 22.9688C19.3939 22.9688 22.9688 19.3939 22.9688 15C22.9688 10.6061 19.3939 7.03125 15 7.03125C10.6061 7.03125 7.03125 10.6061 7.03125 15C7.03125 19.3939 10.6061 22.9688 15 22.9688ZM15 11.4844C16.9385 11.4844 18.5156 13.0615 18.5156 15C18.5156 16.9385 16.9385 18.5156 15 18.5156C13.0615 18.5156 11.4844 16.9385 11.4844 15C11.4844 13.0615 13.0615 11.4844 15 11.4844Z" fill="black"/>
<path d="M28.2422 15C28.2422 14.713 28.2327 14.4229 28.2139 14.1333L29.8259 12.6581L29.7327 12.1752C29.6148 11.5644 29.4578 10.9553 29.2659 10.3649C29.0741 9.77443 28.8431 9.18932 28.5793 8.62564L28.3709 8.18021L26.2005 7.9343C25.8919 7.44639 25.5506 6.97723 25.1807 6.53273L25.6178 4.39096L25.2587 4.0551C24.8045 3.63041 24.3194 3.22992 23.8168 2.86482C23.3145 2.49979 22.7836 2.16211 22.2392 1.86129L21.8087 1.62346L19.9101 2.69924C19.3725 2.48455 18.8195 2.30502 18.2581 2.16287L17.3542 0.176016L16.8661 0.115488C16.2486 0.0388477 15.6208 0 15 0C14.3792 0 13.7514 0.0388477 13.1339 0.115488L12.6458 0.176016L11.7419 2.16287C11.1805 2.30508 10.6276 2.48455 10.0899 2.69924L8.19136 1.62346L7.76087 1.86129C7.21641 2.16211 6.68556 2.49973 6.18323 2.86477C5.68061 3.22992 5.19552 3.63041 4.74136 4.0551L4.38224 4.39096L4.81934 6.53273C4.44933 6.97734 4.10796 7.44639 3.79952 7.93436L1.62915 8.18021L1.42067 8.62564C1.157 9.18908 0.926024 9.77426 0.734129 10.3648C0.542176 10.9555 0.385145 11.5646 0.267313 12.1753L0.174149 12.6581L1.78612 14.1333C1.76731 14.4229 1.75782 14.713 1.75782 15C1.75782 15.2871 1.76731 15.5771 1.78612 15.8667L0.174207 17.3419L0.267371 17.8247C0.385203 18.4354 0.542176 19.0445 0.734188 19.6352C0.926024 20.2257 1.15706 20.8109 1.42073 21.3744L1.62921 21.8198L3.79958 22.0656C4.10807 22.5536 4.44938 23.0227 4.8194 23.4673L4.38229 25.609L4.74141 25.9449C5.19557 26.3696 5.68067 26.7701 6.18323 27.1352C6.68561 27.5002 7.21647 27.8379 7.76093 28.1387L8.19142 28.3765L10.09 27.3008C10.6277 27.5154 11.1806 27.695 11.742 27.8371L12.6459 29.8239L13.1339 29.8845C13.7512 29.9612 14.379 30 15 30C15.621 30 16.2488 29.9612 16.8662 29.8845L17.3542 29.8239L18.2581 27.8371C18.8195 27.6949 19.3725 27.5154 19.9101 27.3008L21.8087 28.3765L22.2392 28.1387C22.7836 27.8379 23.3145 27.5003 23.8168 27.1352C24.3194 26.7701 24.8045 26.3696 25.2587 25.9449L25.6178 25.609L25.1807 23.4673C25.5506 23.0228 25.892 22.5536 26.2005 22.0657L28.3709 21.8198L28.5793 21.3744C28.8431 20.8107 29.0741 20.2256 29.2658 19.6352C29.4577 19.0447 29.6148 18.4355 29.7327 17.8248L29.8259 17.3419L28.2139 15.8667C28.2327 15.5771 28.2422 15.2871 28.2422 15ZM5.27345 15C5.27345 9.6368 9.63681 5.27344 15 5.27344C20.3632 5.27344 24.7266 9.6368 24.7266 15C24.7266 20.3632 20.3632 24.7266 15 24.7266C9.63681 24.7266 5.27345 20.3632 5.27345 15Z" fill="black"/>
</g>
<defs>
<clipPath id="clip0">
<rect width="30" height="30" fill="white"/>
</clipPath>
</defs>
</svg>
