<svg width="45" height="45" viewBox="0 0 45 45" fill="none" xmlns="http://www.w3.org/2000/svg">
<g clip-path="url(#clip0)">
<path d="M40.591 34.1156H43.2967C44.236 34.1156 44.9999 33.3517 44.9999 32.4124C44.9999 31.4734 44.236 30.7095 43.2967 30.7095H28.9736C28.6097 30.7095 28.3144 31.0048 28.3144 31.3687C28.3144 31.7326 28.6097 32.0279 28.9736 32.0279H43.2967C43.5089 32.0279 43.6816 32.2002 43.6816 32.4124C43.6816 32.6246 43.5089 32.7973 43.2967 32.7973H19.8986C19.1831 32.7973 18.5311 32.4038 18.1974 31.7704C17.864 31.1373 17.908 30.3775 18.3121 29.7874L19.2679 28.3918L20.2838 28.2706L18.9465 30.2224C18.7004 30.5822 18.675 31.0268 18.8779 31.412C19.0815 31.7975 19.4632 32.0279 19.8986 32.0279H26.3369C26.7012 32.0279 26.9961 31.7326 26.9961 31.3687C26.9961 31.0048 26.7012 30.7095 26.3369 30.7095H20.211L21.7456 28.47C21.8311 28.3454 21.8981 28.2115 21.9472 28.0721L36.881 26.2889L39.7189 25.9507C41.8572 25.6946 43.4694 23.8781 43.4694 21.7255V19.2975C43.4694 18.9336 43.1741 18.6383 42.8102 18.6383C42.4463 18.6383 42.151 18.9336 42.151 19.2975V19.6164L34.1355 20.1465L33.8052 16.2632L42.151 16.2131V16.6505C42.151 17.0144 42.4463 17.3096 42.8102 17.3096C43.1741 17.3096 43.4694 17.0144 43.4694 16.6505V15.5539C43.4694 15.5511 43.4697 15.5487 43.4697 15.546C43.4697 15.5439 43.4694 15.5419 43.4694 15.5398V11.9253C43.4694 10.9805 42.7306 10.2015 41.7875 10.1517L22.5998 9.13548C22.5919 9.13513 22.584 9.13445 22.5761 9.13445L13.0352 8.62908L12.8869 7.96166C12.6497 6.89255 11.8003 6.07407 10.7233 5.87666L8.6005 5.48767L8.6987 4.9308C8.73474 4.7255 8.68908 4.51847 8.56961 4.34818C8.45013 4.17755 8.27126 4.06391 8.06629 4.02752L2.34757 3.01918C1.8216 2.92648 1.29082 3.0439 0.853084 3.35049C0.415347 3.65708 0.12318 4.11541 0.0304825 4.64172C-0.161092 5.728 0.566753 6.76724 1.65303 6.95881L7.37175 7.96715C7.41742 7.97505 7.46273 7.97917 7.50737 7.97917C7.87815 7.97917 8.20774 7.71275 8.27469 7.33509L8.37151 6.78578L10.4857 7.17304C11.0405 7.27467 11.4779 7.69627 11.6001 8.24696L15.2709 24.7924C15.2709 24.7927 15.2713 24.7934 15.2713 24.7937L15.8357 27.3378C16.0019 28.0865 16.659 28.6022 17.4074 28.6022C17.4479 28.6022 17.4884 28.6002 17.5293 28.5971L17.2244 29.0424C16.5429 30.0373 16.4688 31.3182 17.0311 32.385C17.5938 33.4523 18.6925 34.1153 19.8986 34.1153H20.6391V34.4597C18.813 34.7738 17.4187 36.3678 17.4187 38.2822C17.4187 40.4215 19.1591 42.1618 21.2983 42.1618C23.4372 42.1618 25.1778 40.4215 25.1778 38.2822C25.1778 37.3264 24.827 36.408 24.1901 35.6963C23.9474 35.4251 23.5309 35.4017 23.2594 35.6445C22.9881 35.8872 22.9648 36.304 23.2079 36.5752C23.6281 37.0449 23.8595 37.6512 23.8595 38.2822C23.8595 39.6946 22.7104 40.8434 21.2983 40.8434C19.8862 40.8434 18.7371 39.6946 18.7371 38.2822C18.7371 37.0977 19.5453 36.099 20.6391 35.8075V36.5498C19.9408 36.8162 19.4426 37.4915 19.4426 38.2822C19.4426 39.3057 20.2749 40.1382 21.2983 40.1382C22.3217 40.1382 23.154 39.3057 23.154 38.2822C23.154 37.4915 22.6558 36.8166 21.9575 36.5498V34.1156H39.2726V34.46C37.4465 34.7738 36.0522 36.3678 36.0522 38.2822C36.0522 40.4215 37.7926 42.1621 39.9318 42.1621C42.071 42.1621 43.8113 40.4215 43.8113 38.2822C43.8113 37.3264 43.4608 36.408 42.8239 35.6963C42.5812 35.4251 42.1644 35.4021 41.8932 35.6448C41.622 35.8875 41.5986 36.304 41.8414 36.5756C42.2616 37.0452 42.4933 37.6512 42.4933 38.2822C42.4933 39.6946 41.3442 40.8437 39.9321 40.8437C38.5197 40.8437 37.3706 39.6946 37.3706 38.2822C37.3706 37.0981 38.1791 36.099 39.273 35.8075V36.5498C38.5743 36.8162 38.0761 37.4915 38.0761 38.2822C38.0761 39.3057 38.9087 40.1382 39.9321 40.1382C40.9552 40.1382 41.7878 39.3057 41.7878 38.2822C41.7878 37.4915 41.2896 36.8166 40.5913 36.5498V34.1156H40.591ZM1.88202 5.66036C1.51158 5.59513 1.2637 5.24082 1.32893 4.87072C1.36051 4.69116 1.46008 4.53495 1.60908 4.43024C1.72512 4.34921 1.86005 4.30699 1.99875 4.30699C2.03858 4.30699 2.07875 4.31042 2.11857 4.31763L7.30652 5.23224L7.06963 6.57532L1.88202 5.66036ZM25.8164 26.2824L25.1524 22.0612L32.9314 21.5469L33.2586 25.3939L25.8164 26.2824ZM42.151 20.9379V21.7251C42.151 23.211 41.038 24.4648 39.5627 24.6413L34.5684 25.2377L34.2471 21.4601L42.151 20.9379ZM32.8195 20.2334L24.9468 20.7535L24.2492 16.3202L32.4827 16.2711L32.8195 20.2334ZM14.7542 16.3772L22.916 16.3281L23.626 20.8411L15.8583 21.3543L14.7542 16.3772ZM32.0306 10.9551L32.3708 14.9531L24.0421 15.0029L23.3328 10.4943L32.0306 10.9551ZM42.151 11.925V14.8947L33.6933 14.9452L33.3599 11.0255L41.7178 11.468C41.9608 11.4811 42.151 11.6816 42.151 11.925ZM21.987 10.4233L22.709 15.0111L14.4621 15.0605L13.3318 9.96494L21.987 10.4233ZM17.1225 27.0521L16.1474 22.6566L23.8317 22.1484L24.5066 26.4386L21.312 26.82C21.31 26.8204 21.3079 26.8204 21.3062 26.8204L18.8147 27.118C18.8133 27.118 18.812 27.1184 18.8106 27.1187L17.4462 27.2815C17.2948 27.2993 17.1558 27.2011 17.1225 27.0521ZM21.298 38.8199C21.0017 38.8199 20.7607 38.5785 20.7607 38.2822C20.7607 37.9859 21.0017 37.7449 21.298 37.7449C21.5946 37.7449 21.8356 37.9859 21.8356 38.2822C21.8356 38.5785 21.5942 38.8199 21.298 38.8199ZM39.9318 38.8199C39.6355 38.8199 39.3942 38.5785 39.3942 38.2822C39.3942 37.9859 39.6355 37.7449 39.9318 37.7449C40.2281 37.7449 40.4691 37.9859 40.4691 38.2822C40.4691 38.5785 40.2281 38.8199 39.9318 38.8199Z" fill="#492F92"/>
</g>
<defs>
<clipPath id="clip0">
<rect width="45" height="45" fill="white"/>
</clipPath>
</defs>
</svg>
