<svg width="30" height="30" viewBox="0 0 30 30" fill="none" xmlns="http://www.w3.org/2000/svg">
<path d="M15 0C6.72896 0 0 6.72896 0 15C0 23.271 6.72896 30 15 30C23.271 30 30 23.271 30 15C30 6.72896 23.271 0 15 0ZM15 28.2422C7.69822 28.2422 1.75781 22.3018 1.75781 15C1.75781 7.69822 7.69822 1.75781 15 1.75781C22.3018 1.75781 28.2422 7.69822 28.2422 15C28.2422 22.3018 22.3018 28.2422 15 28.2422Z" fill="black"/>
<path d="M15 15.8203C18.3924 15.8203 21.1523 13.0604 21.1523 9.66797C21.1523 6.27557 18.3924 3.51562 15 3.51562C11.6076 3.51562 8.84766 6.27557 8.84766 9.66797C8.84766 13.0604 11.6076 15.8203 15 15.8203ZM15 5.27344C17.4231 5.27344 19.3945 7.24482 19.3945 9.66797C19.3945 12.0911 17.4231 14.0625 15 14.0625C12.5769 14.0625 10.6055 12.0911 10.6055 9.66797C10.6055 7.24482 12.5769 5.27344 15 5.27344Z" fill="black"/>
<path d="M24.8818 19.6549C23.7139 18.335 22.0341 17.5781 20.2735 17.5781H9.72659C7.9659 17.5781 6.2862 18.335 5.11825 19.6549L4.70164 20.1257L5.01254 20.6721C7.0526 24.2572 10.8796 26.4844 15 26.4844C19.1205 26.4844 22.9474 24.2572 24.9876 20.672L25.2985 20.1256L24.8818 19.6549ZM15 24.7266C11.7342 24.7266 8.6859 23.0744 6.89164 20.3733C7.67985 19.7082 8.68338 19.3359 9.72659 19.3359H20.2735C21.3167 19.3359 22.3202 19.7082 23.1084 20.3733C21.3141 23.0744 18.2658 24.7266 15 24.7266Z" fill="black"/>
</svg>
