<svg width="40" height="40" viewBox="0 0 40 40" fill="none" xmlns="http://www.w3.org/2000/svg">
<path d="M15.9766 35.9067V39.9579L14.9969 39.1666C14.8456 39.0442 11.2442 36.1203 7.59216 31.9275C2.55432 26.1435 0 20.9515 0 16.4963V16.0547C0 7.24518 7.16705 0.078125 15.9766 0.078125C24.7861 0.078125 31.9531 7.24518 31.9531 16.0547V16.4963C31.9531 16.8704 31.9333 17.2504 31.8973 17.6349L28.7729 14.7845C28.1329 8.28796 22.6385 3.1955 15.9766 3.1955C8.88611 3.1955 3.11737 8.96423 3.11737 16.0547V16.4963C3.11737 24.025 12.8177 33.139 15.9766 35.9067ZM25.5624 33.6676H30.2383V28.9917H25.5624V33.6676ZM15.9766 9.43024C19.6292 9.43024 22.601 12.402 22.601 16.0547C22.601 19.7073 19.6292 22.6791 15.9766 22.6791C12.3239 22.6791 9.35211 19.7073 9.35211 16.0547C9.35211 12.402 12.3239 9.43024 15.9766 9.43024ZM15.9766 12.5476C14.0427 12.5476 12.4695 14.1208 12.4695 16.0547C12.4695 17.9883 14.0427 19.5618 15.9766 19.5618C17.9102 19.5618 19.4836 17.9883 19.4836 16.0547C19.4836 14.1208 17.9102 12.5476 15.9766 12.5476ZM37.8992 31.5494L37.0227 30.7498V35.7544C37.0227 38.0847 35.1266 39.9805 32.7963 39.9805H22.9266C20.5963 39.9805 18.7003 38.0847 18.7003 35.7544V30.7498L17.8238 31.5494L15.723 29.2465L27.8613 18.1726L40 29.2465L37.8992 31.5494ZM33.9053 27.9059L27.8613 22.3923L21.8176 27.9059V35.7541C21.8176 36.3657 22.3151 36.8631 22.9266 36.8631H32.7963C33.4079 36.8631 33.9053 36.3657 33.9053 35.7541V27.9059Z" fill="#F5CE4D"/>
</svg>
